<?xml version="1.0" encoding="UTF-8" standalone="no"?>
<svg
   xmlns:dc="http://purl.org/dc/elements/1.1/"
   xmlns:cc="http://creativecommons.org/ns#"
   xmlns:rdf="http://www.w3.org/1999/02/22-rdf-syntax-ns#"
   xmlns:svg="http://www.w3.org/2000/svg"
   xmlns="http://www.w3.org/2000/svg"
   xmlns:sodipodi="http://sodipodi.sourceforge.net/DTD/sodipodi-0.dtd"
   xmlns:inkscape="http://www.inkscape.org/namespaces/inkscape"
   width="752pt"
   height="752pt"
   version="1.1"
   viewBox="0 0 752 752"
   id="svg8"
   sodipodi:docname="target.svg"
   inkscape:version="1.0.1 (3bc2e813f5, 2020-09-07)">
  <metadata
     id="metadata14">
    <rdf:RDF>
      <cc:Work
         rdf:about="">
        <dc:format>image/svg+xml</dc:format>
        <dc:type
           rdf:resource="http://purl.org/dc/dcmitype/StillImage" />
      </cc:Work>
    </rdf:RDF>
  </metadata>
  <defs
     id="defs12">
    <clipPath
       id="a">
      <path
         d="m139.21 139.21h473.58v473.58h-473.58z"
         id="path145" />
    </clipPath>
  </defs>
  <sodipodi:namedview
     pagecolor="#ffffff"
     bordercolor="#666666"
     borderopacity="1"
     objecttolerance="10"
     gridtolerance="10"
     guidetolerance="10"
     inkscape:pageopacity="0"
     inkscape:pageshadow="2"
     inkscape:window-width="3840"
     inkscape:window-height="1547"
     id="namedview10"
     showgrid="false"
     showguides="true"
     inkscape:guide-bbox="true"
     inkscape:zoom="1.0053191"
     inkscape:cx="426.03454"
     inkscape:cy="542.25078"
     inkscape:window-x="-8"
     inkscape:window-y="-8"
     inkscape:window-maximized="1"
     inkscape:current-layer="svg8" />
  <rect
     style="fill:#000000;stroke-width:0.288732"
     id="rect226"
     width="468.56735"
     height="468.50894"
     x="137.22284"
     y="132.98866"
     inkscape:export-xdpi="78.683655"
     inkscape:export-ydpi="78.683655" />
  <g
     id="g22"
     transform="translate(-4.9225095,-9.3975843)"
     style="fill:#d40000"
     inkscape:export-xdpi="78.683655"
     inkscape:export-ydpi="78.683655">
    <g
       id="g251"
       style="opacity:1"
       inkscape:export-xdpi="78"
       inkscape:export-ydpi="78">
      <path
         style="color:#000000;font-style:normal;font-variant:normal;font-weight:normal;font-stretch:normal;font-size:medium;line-height:normal;font-family:sans-serif;font-variant-ligatures:normal;font-variant-position:normal;font-variant-caps:normal;font-variant-numeric:normal;font-variant-alternates:normal;font-variant-east-asian:normal;font-feature-settings:normal;font-variation-settings:normal;text-indent:0;text-align:start;text-decoration:none;text-decoration-line:none;text-decoration-style:solid;text-decoration-color:#000000;letter-spacing:normal;word-spacing:normal;text-transform:none;writing-mode:lr-tb;direction:ltr;text-orientation:mixed;dominant-baseline:auto;baseline-shift:baseline;text-anchor:start;white-space:normal;shape-padding:0;shape-margin:0;inline-size:0;clip-rule:nonzero;display:inline;overflow:visible;visibility:visible;isolation:auto;mix-blend-mode:normal;color-interpolation:sRGB;color-interpolation-filters:linearRGB;solid-color:#000000;solid-opacity:1;vector-effect:none;fill:#d40000;fill-opacity:1;fill-rule:nonzero;stroke:none;stroke-width:1;stroke-linecap:butt;stroke-linejoin:miter;stroke-miterlimit:4;stroke-dasharray:none;stroke-dashoffset:0;stroke-opacity:1;color-rendering:auto;image-rendering:auto;shape-rendering:auto;text-rendering:auto;enable-background:accumulate;stop-color:#000000;stop-opacity:1"
         d="M 598.22,370.29 H 558.814 C 556.8609,273.161 478.169,194.52 380.974,192.57 v -36.137 c 0,-2.043 -1.6562,-3.6992 -3.6992,-3.6992 -2.043,0 -3.6992,1.6562 -3.6992,3.6992 v 36.137 c -97.176,1.9531 -175.85,80.594 -177.8,177.72 h -41.102 c -2.043,0 -3.6992,1.6562 -3.6992,3.6992 0,2.043 1.6562,3.6992 3.6992,3.6992 h 41.094 c 0.9375,47.09 19.715,91.219 53.137,124.62 33.418,33.398 77.566,52.168 124.67,53.102 v 41.047 c 0,2.043 1.6562,3.6992 3.6992,3.6992 2.043,0 3.6992,-1.6562 3.6992,-3.6992 v -41.047 c 97.191,-1.9531 175.88,-80.594 177.84,-177.72 h 39.406 c 2.043,0 3.6992,-1.6562 3.6992,-3.6992 0.008,-2.043 -1.6484,-3.6992 -3.6914,-3.6992 z m -46.809,0 H 503.399 C 501.4693,303.692 447.618,249.88 380.969,247.95 l 0.004,-47.98 c 93.109,1.9492 168.48,77.27 170.43,170.32 z m -94.012,7.3984 h 38.598 c -1.9258,62.516 -52.461,113.01 -115.02,114.93 v -39.102 c 0,-2.043 -1.6562,-3.6992 -3.6992,-3.6992 -2.043,0 -3.6992,1.6562 -3.6992,3.6992 v 39.102 c -62.547,-1.9258 -113.06,-52.418 -114.99,-114.93 h 38.598 c 2.043,0 3.6992,-1.6562 3.6992,-3.6992 0,-2.043 -1.6562,-3.6992 -3.6992,-3.6992 h -38.598 c 1.9258,-62.516 52.445,-113.01 114.99,-114.93 v 38.559 c 0,2.043 1.6562,3.6992 3.6992,3.6992 2.043,0 3.6992,-1.6562 3.6992,-3.6992 V 255.36 c 62.562,1.9219 113.1,52.418 115.02,114.93 h -38.598 c -2.043,0 -3.6992,1.6562 -3.6992,3.6992 -0.004,2.043 1.6562,3.6992 3.6992,3.6992 z m -83.824,-177.72 v 47.984 c -66.625,1.9297 -120.46,55.742 -122.39,122.34 l -48.012,-0.004 c 1.9531,-93.051 77.312,-168.37 170.41,-170.32 z m -119.44,297.11 c -32.023,-32.008 -50.035,-74.277 -50.969,-119.39 h 48.016 c 1.9297,66.594 55.77,120.41 122.39,122.34 v 47.988 c -45.129,-0.93359 -87.422,-18.934 -119.44,-50.938 z m 126.84,50.934 v -47.984 c 66.645,-1.9258 120.5,-55.742 122.43,-122.34 h 48.012 c -1.957,93.051 -77.328,168.38 -170.44,170.32 z"
         id="path253"
         inkscape:export-xdpi="78"
         inkscape:export-ydpi="78" />
      <path
         style="color:#000000;font-style:normal;font-variant:normal;font-weight:normal;font-stretch:normal;font-size:medium;line-height:normal;font-family:sans-serif;font-variant-ligatures:normal;font-variant-position:normal;font-variant-caps:normal;font-variant-numeric:normal;font-variant-alternates:normal;font-variant-east-asian:normal;font-feature-settings:normal;font-variation-settings:normal;text-indent:0;text-align:start;text-decoration:none;text-decoration-line:none;text-decoration-style:solid;text-decoration-color:#000000;letter-spacing:normal;word-spacing:normal;text-transform:none;writing-mode:lr-tb;direction:ltr;text-orientation:mixed;dominant-baseline:auto;baseline-shift:baseline;text-anchor:start;white-space:normal;shape-padding:0;shape-margin:0;inline-size:0;clip-rule:nonzero;display:inline;overflow:visible;visibility:visible;isolation:auto;mix-blend-mode:normal;color-interpolation:sRGB;color-interpolation-filters:linearRGB;solid-color:#000000;solid-opacity:1;vector-effect:none;fill-opacity:1;fill-rule:nonzero;stroke:#d40000;stroke-width:7.5;stroke-linecap:butt;stroke-linejoin:miter;stroke-miterlimit:4;stroke-dasharray:none;stroke-dashoffset:0;stroke-opacity:1;color-rendering:auto;image-rendering:auto;shape-rendering:auto;text-rendering:auto;enable-background:accumulate;stop-color:#000000;stop-opacity:1"
         d="m 377.27539,152.23438 c -2.31322,0 -4.19922,1.88599 -4.19922,4.19921 v 35.66993 C 276.03,194.31542 197.51768,272.79245 195.30859,369.78906 h -40.63476 c -2.31323,0 -4.19922,1.886 -4.19922,4.19922 0,2.31322 1.88599,4.19922 4.19922,4.19922 h 40.62695 c 1.06073,47.03181 19.85503,91.10062 53.25,124.47461 33.39053,33.37054 77.47839,52.1572 124.52344,53.21484 v 40.58008 c 0,2.31322 1.88599,4.19922 4.19922,4.19922 2.31322,0 4.19922,-1.886 4.19922,-4.19922 v -40.58008 c 97.06175,-2.21189 175.58856,-80.68993 177.80664,-177.6875 h 38.93945 c 2.31256,0 4.19814,-1.88495 4.19922,-4.19726 v -0.002 c 0.008,-2.31339 -1.87885,-4.19726 -4.19141,-4.19726 l 0.14063,0.0195 -0.0742,-0.0234 h -0.0723 -38.93945 C 557.06902,272.7894 478.53969,194.31231 381.47461,192.10352 v -35.66993 c 0,-2.31322 -1.886,-4.19922 -4.19922,-4.19921 z m 0,1 c 1.77278,0 3.19922,1.42644 3.19922,3.19921 v 36.62696 l 0.49023,0.01 c 96.93088,1.9447 175.40183,80.36594 177.34961,177.23047 l 0.01,0.48828 h 39.8164 l 0.0137,0.004 h 0.0723 c 1.77278,0 3.19835,1.42362 3.19141,3.19531 v 0.002 c 0,1.77278 -1.42644,3.19922 -3.19922,3.19922 h -39.89648 l -0.01,0.49024 c -1.95466,96.86155 -80.42274,175.28267 -177.34961,177.23047 l -0.49023,0.01 v 41.53711 c 0,1.77278 -1.42645,3.19922 -3.19922,3.19922 -1.77278,0 -3.19922,-1.42644 -3.19922,-3.19922 v -41.53711 l -0.49024,-0.01 C 326.60654,553.97867 282.58633,535.26365 249.25781,501.95508 215.92533,468.64354 197.20256,424.64111 196.26758,377.67773 l -0.01,-0.49023 h -41.58398 c -1.77278,0 -3.19922,-1.42644 -3.19922,-3.19922 0,-1.77278 1.42644,-3.19922 3.19922,-3.19922 h 41.59179 l 0.01,-0.48828 c 1.94469,-96.86157 80.39872,-175.28268 177.31055,-177.23047 l 0.49023,-0.01 v -36.62696 c 0,-1.77277 1.42644,-3.19922 3.19922,-3.19921 z m 3.19727,46.2246 -0.004,48.97657 0.48633,0.0137 c 66.38799,1.92244 120.02123,55.51887 121.94336,121.85547 l 0.0156,0.48437 h 48 0.4961 v -0.99218 l 0.49218,0.48242 C 549.94681,276.96512 474.3572,201.42543 380.98438,199.4707 Z m -7.39844,0.01 v 0.0352 c -93.12958,2.2164 -168.44528,77.62638 -170.40039,170.77343 l -0.0117,0.51172 49.00781,0.004 0.0156,-0.48633 c 1.92242,-66.33668 55.54039,-119.93138 121.90429,-121.85352 l 0.48438,-0.0156 v -48.46875 l -0.48047,0.48047 -0.0117,-0.98047 h -0.01 z m 0,1.03711 v 46.98437 c -66.49537,2.18203 -120.17002,55.83378 -122.35156,122.30274 l -47.01368,-0.004 c 2.21057,-92.3739 76.94551,-167.07078 169.36524,-169.2832 z m 8.39844,0 c 92.43469,2.20646 167.18592,76.90788 169.39453,169.2832 H 503.86133 C 501.67902,303.32019 447.98821,249.6695 381.46875,247.48828 Z m -7.39454,54.33789 -0.51562,0.0156 c -62.80547,1.92799 -113.54078,52.63931 -115.47461,115.41601 l -0.0156,0.51367 h 39.11523 c 1.77278,0 3.19922,1.42644 3.19922,3.19922 0,1.77278 -1.42644,3.19922 -3.19922,3.19922 h -39.11523 l 0.0156,0.51562 c 1.93805,62.77267 52.66718,113.48025 115.47461,115.41407 l 0.51562,0.0176 v -39.61915 c 0,-1.77277 1.42645,-3.19921 3.19922,-3.19921 1.77278,0 3.19922,1.42644 3.19922,3.19921 v 39.61915 l 0.51563,-0.0156 c 62.81941,-1.92799 113.57007,-52.63923 115.5039,-115.41602 l 0.0156,-0.51562 h -39.11328 c -1.77278,0 -3.20269,-1.42567 -3.19922,-3.19727 v -0.002 c 0,-1.77278 1.42644,-3.19922 3.19922,-3.19922 h 39.11328 l -0.0156,-0.51367 c -1.92801,-62.77284 -52.6815,-113.48612 -115.5039,-115.41601 l -0.51563,-0.0156 v 39.07617 c 0,1.77278 -1.42644,3.19922 -3.19922,3.19922 -1.77277,0 -3.19922,-1.42644 -3.19922,-3.19922 z m -1,1.05664 v 38.01953 c 0,2.31323 1.886,4.19922 4.19922,4.19922 2.31323,0 4.19922,-1.88599 4.19922,-4.19922 v -38.01953 c 61.8864,2.1717 111.81016,52.05246 113.98047,113.88867 h -38.05859 c -2.31323,0 -4.19922,1.886 -4.19922,4.19922 -0.005,2.3144 1.88599,4.19922 4.19922,4.19922 h 38.05859 c -2.17498,61.84116 -52.09639,111.72078 -113.98047,113.89062 v -38.5625 c 0,-2.31322 -1.88599,-4.19921 -4.19922,-4.19921 -2.31322,0 -4.19922,1.88599 -4.19922,4.19921 v 38.5625 C 311.20615,489.9025 261.30794,440.02472 259.12891,378.1875 h 38.05859 c 2.31322,0 4.19922,-1.886 4.19922,-4.19922 0,-2.31322 -1.886,-4.19922 -4.19922,-4.19922 h -38.05859 c 2.17587,-61.84028 52.07986,-111.71876 113.94921,-113.88867 z m -170.42187,121.28711 0.01,0.51172 c 0.92862,44.85336 18.73762,86.88178 50.33789,118.8789 h -0.0801 l 0.85547,0.85352 c 3.4e-4,3.4e-4 0.002,-3.4e-4 0.002,0 32.10728,32.09272 74.52632,50.14779 119.78125,51.08398 l 0.50977,0.0117 v -48.98437 l -0.48633,-0.0137 C 307.22707,497.60686 253.60377,444.00647 251.68164,377.67383 l -0.0137,-0.48633 z m 300.26367,0 -0.0156,0.48633 c -1.92243,66.33658 -55.55942,119.93721 -121.94336,121.85547 l -0.48633,0.0137 v 48.46875 l 0.94336,0.22461 -0.42969,0.27148 c 93.37588,-1.9455 168.96518,-77.49344 170.92774,-170.80859 l 0.0117,-0.51172 z m -299.21875,1 h 47.01758 c 2.18129,66.46568 55.86217,120.12135 122.35352,122.30273 v 46.99024 c -44.79981,-1.05629 -86.75998,-18.95617 -118.56446,-50.73633 -0.007,-0.007 -0.013,-0.013 -0.0195,-0.0195 -31.81195,-31.79705 -49.73005,-73.74378 -50.78711,-118.53711 z m 300.16602,0 h 47.01562 c -2.21453,92.37793 -76.96901,167.08877 -169.4082,169.28516 v -46.98243 c 66.51623,-2.17709 120.21095,-55.83292 122.39258,-122.30273 z"
         id="path255"
         inkscape:export-xdpi="78"
         inkscape:export-ydpi="78" />
    </g>
  </g>
  <g
     id="g173"
     transform="matrix(1.3027021,0,0,1.3027021,-118.24697,-123.87816)"
     style="fill:#ffffff"
     inkscape:export-xdpi="78.683655"
     inkscape:export-ydpi="78.683655">
    <path
       d="M 248.61,460.3 380.26,375.058 248.61,289.812 Z"
       id="path150"
       style="fill:#ffffff" />
    <path
       d="m 403.94,289.81 h 37.887 V 460.3 H 403.94 Z"
       id="path152"
       style="fill:#ffffff" />
    <path
       d="m 465.51,289.81 h 37.887 V 460.3 H 465.51 Z"
       id="path154"
       style="fill:#ffffff" />
  </g>
</svg>
